<?xml version="1.0" encoding="UTF-8"?>
<svg version="1.1" xmlns="http://www.w3.org/2000/svg" width="400" height="400">
<path d="M0 0 C33.91152164 30.45716204 55.40427236 73.41022804 58.61328125 119.05078125 C60.38855926 163.50827514 50.58907057 206.0354858 23.61328125 242.05078125 C22.97519531 242.91316406 22.33710938 243.77554687 21.6796875 244.6640625 C6.17952802 264.57557341 -12.97397152 280.58941231 -35.38671875 292.05078125 C-36.06847168 292.40124512 -36.75022461 292.75170898 -37.45263672 293.11279297 C-80.57223909 315.00055743 -131.59590957 318.19966952 -177.50244141 303.3671875 C-203.26744314 294.71982024 -225.21062371 280.00602527 -245.38671875 262.05078125 C-246.40378906 261.14585937 -246.40378906 261.14585937 -247.44140625 260.22265625 C-253.47271247 254.5087872 -258.38916753 247.65925763 -263.38671875 241.05078125 C-264.02867187 240.20386719 -264.670625 239.35695313 -265.33203125 238.484375 C-287.36083641 208.20757535 -297.60874628 171.87766765 -297.63671875 134.73828125 C-297.63773087 133.5323381 -297.63773087 133.5323381 -297.63876343 132.30203247 C-297.62235686 119.9911279 -297.13594457 108.0979207 -294.38671875 96.05078125 C-294.12133301 94.86476318 -294.12133301 94.86476318 -293.85058594 93.65478516 C-288.05749187 68.45632675 -277.5625335 44.36577623 -261.38671875 24.05078125 C-260.73968994 23.23673828 -260.73968994 23.23673828 -260.07958984 22.40625 C-232.46474008 -12.034176 -192.80409442 -35.5905021 -149.38671875 -43.94921875 C-148.27296875 -44.17480469 -147.15921875 -44.40039062 -146.01171875 -44.6328125 C-94.2074099 -53.32682267 -38.94130052 -34.2929272 0 0 Z M-209.57421875 56.36328125 C-230.79543164 80.30516246 -239.90585723 110.89923456 -238.55078125 142.45556641 C-236.54406833 174.19865915 -220.43675099 202.26938929 -197.546875 223.7109375 C-173.08401731 244.95586223 -141.78303114 253.906889 -109.65087891 251.65673828 C-77.82219522 248.87136041 -49.78513578 235.30399399 -28.69921875 210.92578125 C-18.85100138 199.06414251 -11.31683793 185.63372278 -6.38671875 171.05078125 C-5.99871094 169.91382813 -5.61070312 168.776875 -5.2109375 167.60546875 C3.86958392 138.61384035 0.32981911 106.88855798 -13.29296875 79.94921875 C-28.34789094 51.38097617 -54.20548395 29.59361061 -84.96801758 19.82226562 C-131.84411272 5.84861934 -176.64822525 21.76050104 -209.57421875 56.36328125 Z " fill="#9833EE" transform="translate(319.38671875,83.94921875)"/>
<path d="M0 0 C1.92374451 -0.00574036 1.92374451 -0.00574036 3.88635254 -0.01159668 C6.59630731 -0.01746985 9.30573227 -0.00901207 12.015625 0.00976562 C15.44058463 0.03237528 18.86428971 0.01914969 22.2892046 -0.00397873 C49.70404877 -0.16178104 49.70404877 -0.16178104 62.65625 4.53125 C63.61289551 4.87542969 64.56954102 5.21960938 65.55517578 5.57421875 C68.0768436 6.55855603 70.51925155 7.6302043 72.96875 8.78125 C73.8148584 9.17256104 74.6609668 9.56387207 75.53271484 9.96704102 C95.59850372 19.51033792 108.49399678 35.09012888 116.65625 55.53125 C126.28181194 82.79841564 125.18424204 114.6991499 113.05859375 140.99609375 C109.3666172 148.2034375 105.01551276 154.47248507 99.65625 160.53125 C99.13804687 161.14355469 98.61984375 161.75585938 98.0859375 162.38671875 C83.47886062 178.42514236 59.88572704 185.48371265 38.90625 187.28125 C36.15203005 187.4031971 33.41188758 187.48495018 30.65625 187.53125 C29.56666992 187.55171387 28.47708984 187.57217773 27.35449219 187.59326172 C-20.07106686 188.34932136 -20.07106686 188.34932136 -32.65625 176.44921875 C-41.78461612 166.07415448 -41.49522004 150.73514766 -41.48901367 137.7199707 C-41.49237228 136.68921921 -41.4957309 135.65846771 -41.49919128 134.59648132 C-41.50862591 131.21665209 -41.51064069 127.8368728 -41.51171875 124.45703125 C-41.5149368 122.08587118 -41.51830128 119.7147113 -41.52180481 117.34355164 C-41.52777757 112.3817804 -41.52964664 107.42002653 -41.52905273 102.45825195 C-41.52895128 96.13527262 -41.54259444 89.812406 -41.55982494 83.48945332 C-41.57100536 78.59319051 -41.57297008 73.69695442 -41.57244301 68.80068016 C-41.57361438 66.47135213 -41.57798816 64.14202321 -41.58577538 61.8127079 C-41.69344779 26.27689241 -41.69344779 26.27689241 -33.71875 12.78125 C-30.03920008 9.2953606 -25.78725604 6.93098876 -21.34375 4.53125 C-20.24063477 3.85070557 -19.13751953 3.17016113 -18.00097656 2.46899414 C-12.22408794 -0.39049611 -6.3236296 -0.04193637 0 0 Z M18.65625 62.53125 C18.21626115 65.31921358 18.21626115 65.31921358 18.31567383 68.63330078 C18.31590042 69.91447784 18.31612701 71.19565491 18.31636047 72.51565552 C18.33168159 73.9192947 18.3473296 75.32293034 18.36328125 76.7265625 C18.36887562 78.15859535 18.37314647 79.59063393 18.37614441 81.02267456 C18.38760587 84.79412656 18.41708376 88.56523265 18.45025635 92.33654785 C18.4809295 96.18395304 18.49464382 100.03141406 18.50976562 103.87890625 C18.54195262 111.4298453 18.59316416 118.98049921 18.65625 126.53125 C22.30192713 126.61941905 25.94732474 126.67202948 29.59375 126.71875 C30.61533203 126.74388672 31.63691406 126.76902344 32.68945312 126.79492188 C42.45126801 126.8884856 49.76683898 125.23495851 56.93359375 118.41015625 C64.15549289 110.53320957 65.06528393 100.77495577 64.83984375 90.41796875 C64.2415953 81.01146652 61.34916921 73.75894768 54.40625 67.21875 C47.58084413 61.9091349 39.69146377 61.02582934 31.28125 60.71875 C30.39308594 60.66783203 29.50492188 60.61691406 28.58984375 60.56445312 C23.32132585 60.20759182 23.32132585 60.20759182 18.65625 62.53125 Z " fill="#9833EE" transform="translate(168.34375,123.46875)"/>
<path d="M0 0 C4.66996818 1.35238898 8.52974371 3.33995064 12.5625 6 C13.16892334 6.39662842 13.77534668 6.79325684 14.40014648 7.2019043 C54.93317266 34.07837811 81.82176452 73.95923584 91.99609375 121.5234375 C101.26720394 167.67378227 92.29695015 216.97697867 66.74609375 256.5625 C64.5976325 259.78378826 62.32133483 262.90079283 60 266 C59.36191406 266.86238281 58.72382813 267.72476562 58.06640625 268.61328125 C42.56624677 288.52479216 23.41274723 304.53863106 1 316 C0.31824707 316.35046387 -0.36350586 316.70092773 -1.06591797 317.06201172 C-44.18552034 338.94977618 -95.20919082 342.14888827 -141.11572266 327.31640625 C-166.88072439 318.66903899 -188.82390496 303.95524402 -209 286 C-210.01707031 285.09507812 -210.01707031 285.09507812 -211.0546875 284.171875 C-217.08599372 278.45800595 -222.00244878 271.60847638 -227 265 C-227.64195312 264.15308594 -228.28390625 263.30617188 -228.9453125 262.43359375 C-250.97411766 232.1567941 -261.22202753 195.8268864 -261.25 158.6875 C-261.25101212 157.48155685 -261.25101212 157.48155685 -261.25204468 156.25125122 C-261.23563811 143.94034665 -260.74922582 132.04713945 -258 120 C-257.73461426 118.81398193 -257.73461426 118.81398193 -257.46386719 117.60400391 C-251.67077312 92.4055455 -241.17581475 68.31499498 -225 48 C-224.35297119 47.18595703 -224.35297119 47.18595703 -223.69287109 46.35546875 C-210.28848392 29.63791249 -194.90273624 15.80097658 -176.5625 4.625 C-175.92981201 4.23739502 -175.29712402 3.84979004 -174.64526367 3.45043945 C-173.13532287 2.56451012 -171.57133734 1.7718102 -170 1 C-169.01 1.495 -169.01 1.495 -168 2 C-169.07636719 2.72703125 -170.15273437 3.4540625 -171.26171875 4.203125 C-180.92232766 10.81938705 -189.63599906 17.81599908 -198 26 C-198.66128906 26.61101562 -199.32257813 27.22203125 -200.00390625 27.8515625 C-226.45110767 52.76470351 -242.64276874 93.08447024 -244.12402344 129.0078125 C-245.23041571 175.06651288 -232.08189634 217.15877386 -200 251 C-199.11828125 251.94617188 -198.2365625 252.89234375 -197.328125 253.8671875 C-172.21492904 280.28075711 -133.92792975 299.10220755 -97.21794128 300.31402588 C-92.91589929 300.41303477 -88.61558263 300.43901486 -84.3125 300.4375 C-83.40570496 300.43823517 -82.49890991 300.43897034 -81.56463623 300.43972778 C-38.38482904 300.34792063 1.28907818 283.5879231 32.125 253.3125 C58.32121959 226.78220054 76.87865397 188.76938027 77.23828125 151.0859375 C77.2480751 150.24218063 77.25786896 149.39842377 77.26795959 148.52909851 C77.6418893 122.99384403 77.6418893 122.99384403 73 98 C72.69449219 96.88987549 72.69449219 96.88987549 72.3828125 95.75732422 C65.99118894 72.91811995 54.43401117 51.94918336 39 34 C38.18015625 33.04609375 37.3603125 32.0921875 36.515625 31.109375 C26.60371786 19.82490992 15.4417452 10.98685184 2.82421875 2.8984375 C1.42623047 1.95871094 1.42623047 1.95871094 0 1 C0 0.67 0 0.34 0 0 Z " fill="#0E0988" transform="translate(283,60)"/>
<path d="M0 0 C1.48113281 1.03833984 1.48113281 1.03833984 2.9921875 2.09765625 C32.88827798 23.98978119 52.35271365 55.33877806 58.46875 91.92578125 C63.44190918 127.83234074 55.03872235 163.71957989 33.6875 193.125 C20.27123908 210.44375334 2.64895688 227.6138336 -18 236 C-18.66 235.67 -19.32 235.34 -20 235 C-18.61941406 234.12601562 -18.61941406 234.12601562 -17.2109375 233.234375 C-3.69885825 224.54238368 8.48910425 215.10774359 18 202 C18.40702148 201.44473633 18.81404297 200.88947266 19.23339844 200.31738281 C37.84279516 174.66430831 45.3953498 143.65976378 40.74609375 112.234375 C35.67147568 81.68702471 18.58846061 53.7848069 -6.4296875 35.44140625 C-32.78120771 16.80666267 -64.4320954 8.97464368 -96.4375 14.1875 C-126.57125954 19.67299036 -154.51049921 37.22034661 -172.30859375 62.24609375 C-190.38890072 89.14059784 -198.70328378 120.63362923 -192.4765625 152.80883789 C-188.19513563 172.52358804 -179.97391193 190.47419465 -167 206 C-166.16855469 206.99515625 -165.33710938 207.9903125 -164.48046875 209.015625 C-155.81096976 219.05534497 -145.47146925 227.34654784 -134 234 C-134.66 234.33 -135.32 234.66 -136 235 C-138.50972603 233.83695623 -140.85432141 232.61907872 -143.25 231.25 C-143.96655762 230.84096436 -144.68311523 230.43192871 -145.42138672 230.01049805 C-175.86897579 212.17153192 -198.43392058 182.36056193 -207.72021484 148.36328125 C-209.05222111 142.94925423 -210.10701822 137.50228175 -211 132 C-211.22623047 130.64455078 -211.22623047 130.64455078 -211.45703125 129.26171875 C-215.92697715 94.7537364 -206.00624942 59.82231904 -185.6875 31.875 C-163.35258444 3.12595484 -132.32179751 -16.49087375 -96 -22 C-95.30003906 -22.11085938 -94.60007812 -22.22171875 -93.87890625 -22.3359375 C-61.72746822 -26.4593455 -26.49690704 -19.0224064 0 0 Z " fill="#0E0988" transform="translate(276,87)"/>
<path d="M0 0 C0 3 0 3 -0.9832859 4.85429668 C-2.23503327 7.49602112 -2.25700243 9.41266381 -2.26742554 12.33125305 C-2.27595551 13.41206146 -2.28448547 14.49286987 -2.29327393 15.60643005 C-2.29236755 16.78729691 -2.29146118 17.96816376 -2.29052734 19.18481445 C-2.29724457 20.43236511 -2.30396179 21.67991577 -2.31088257 22.965271 C-2.32662903 26.38489102 -2.33323785 29.80426816 -2.33451414 33.22390771 C-2.33593671 35.36208843 -2.34020834 37.50024378 -2.34550858 39.6384182 C-2.36400918 47.10295601 -2.37217933 54.56742244 -2.37060547 62.03198242 C-2.36940468 68.98142394 -2.39049434 75.93055457 -2.4220928 82.87991744 C-2.44828025 88.85289666 -2.45897171 94.8257745 -2.45769465 100.79881066 C-2.45718565 104.36327717 -2.4628337 107.92746746 -2.48405075 111.4918766 C-2.50708608 115.47037418 -2.49789704 119.44844861 -2.48583984 123.42700195 C-2.50269836 125.18919319 -2.50269836 125.18919319 -2.51989746 126.98698425 C-2.46936771 133.54802705 -1.98917273 137.70165947 2 143 C7.96943384 147.79580555 13.67055337 147.58539412 21.1171875 147.53125 C22.28774689 147.5350769 23.45830627 147.53890381 24.66433716 147.54284668 C27.14049133 147.54556341 29.61667432 147.53821912 32.09277344 147.52148438 C35.82815049 147.50026612 39.56156132 147.52119595 43.296875 147.546875 C59.34670426 147.56705292 75.09152268 147.09103485 89.5 139.1875 C90.15669678 138.84203125 90.81339355 138.4965625 91.48999023 138.140625 C108.58991893 128.90679034 118.11894889 114.97192089 123.7421875 96.68359375 C125.68057136 89.86539202 126.50619902 83.0645398 127 76 C127.08894531 74.79537109 127.08894531 74.79537109 127.1796875 73.56640625 C127.84183602 54.10659711 122.44088164 33.31113682 109.5 18.5625 C105.87959938 14.75580089 102.0835221 11.30157106 98 8 C98.66 7.67 99.32 7.34 100 7 C119.58369927 17.12490575 131.9193385 33.77478186 139.19140625 54.375 C147.74304258 82.14415118 145.98869717 113.84638161 132.6875 139.8125 C129.34646455 145.7191028 125.49065801 150.92321192 121 156 C120.48179687 156.61230469 119.96359375 157.22460938 119.4296875 157.85546875 C104.82261062 173.89389236 81.22947704 180.95246265 60.25 182.75 C57.49578005 182.8719471 54.75563758 182.95370018 52 183 C50.91041992 183.02046387 49.82083984 183.04092773 48.69824219 183.06201172 C1.27268314 183.81807136 1.27268314 183.81807136 -11.3125 171.91796875 C-20.44086612 161.54290448 -20.15147004 146.20389766 -20.14526367 133.1887207 C-20.14862228 132.15796921 -20.1519809 131.12721771 -20.15544128 130.06523132 C-20.16487591 126.68540209 -20.16689069 123.3056228 -20.16796875 119.92578125 C-20.1711868 117.55462118 -20.17455128 115.1834613 -20.17805481 112.81230164 C-20.18402757 107.8505304 -20.18589664 102.88877653 -20.18530273 97.92700195 C-20.18520128 91.60402262 -20.19884444 85.281156 -20.21607494 78.95820332 C-20.22725536 74.06194051 -20.22922008 69.16570442 -20.22869301 64.26943016 C-20.22986438 61.94010213 -20.23423816 59.61077321 -20.24202538 57.2814579 C-20.34969779 21.74564241 -20.34969779 21.74564241 -12.375 8.25 C-8.70801678 4.77601589 -4.39904725 2.44298235 0 0 Z " fill="#0E0988" transform="translate(147,128)"/>
<path d="M0 0 C52.42718447 0 52.42718447 0 65 10 C65.62648438 10.48984375 66.25296875 10.9796875 66.8984375 11.484375 C75.19578499 18.80343261 79.08818031 30.2052314 80 41 C80.88141049 57.21028863 79.27868367 72.31511355 69.078125 85.48046875 C64.87573042 89.96022137 59.82873711 93.89613631 54 96 C53.01 95.67 52.02 95.34 51 95 C51.47050781 94.5153125 51.94101563 94.030625 52.42578125 93.53125 C60.67301432 84.65224131 62.2961439 75.97679154 62.1484375 64.02734375 C61.689492 54.66727112 58.82117974 47.90802473 52.25 41.1875 C45.21576421 36.45291822 37.88938943 35.50925082 29.5625 35.25 C28.66595703 35.20746094 27.76941406 35.16492188 26.84570312 35.12109375 C22.2721605 34.75882125 22.2721605 34.75882125 18 36 C17.67 57.12 17.34 78.24 17 100 C11.39 100 5.78 100 0 100 C0 67 0 34 0 0 Z " fill="#0E0988" transform="translate(170,150)"/>
</svg>
