<svg width="24" height="24" viewBox="0 0 24 24" fill="none" xmlns="http://www.w3.org/2000/svg">
  <path d="M23.546 10.93L13.067.452c-.604-.603-1.582-.603-2.188 0L8.708 2.627l2.76 2.76c.645-.215 1.379-.07 1.889.441.516.515.658 1.258.428 1.9l2.658 2.66c.645-.23 1.387-.87 1.9.428.720.72.720 1.884 0 2.604-.719.719-1.881.719-2.6 0-.539-.541-.67-1.337-.396-1.983l-2.48-2.48v6.529c.176.086.342.203.488.348.713.713.713 1.87 0 2.583-.712.713-1.87.713-2.584 0-.713-.713-.713-1.87 0-2.583.177-.177.383-.316.605-.406v-6.58c-.223-.09-.428-.23-.605-.407-.542-.544-.676-1.342-.404-1.984L6.717 5.105.452 11.37c-.603.604-.603 1.582 0 2.187l10.478 10.477c.604.604 1.582.604 2.188 0L23.546 13.12c.603-.603.603-1.582 0-2.187" fill="#F1502F"/>
</svg>
